<?xml version="1.0" standalone="no"?><!-- Generator: Gravit.io --><svg xmlns="http://www.w3.org/2000/svg" xmlns:xlink="http://www.w3.org/1999/xlink" style="isolation:isolate" viewBox="0 0 100 100" width="100" height="100"><defs><clipPath id="_clipPath_H4OSjQNeVlddi2ja23iz2xdN4BNHKqRV"><rect width="100" height="100"/></clipPath></defs><g clip-path="url(#_clipPath_H4OSjQNeVlddi2ja23iz2xdN4BNHKqRV)"><path d=" M 5 50 C 5 25.164 25.164 5 50 5 C 74.836 5 95 25.164 95 50 C 95 74.836 74.836 95 50 95 C 25.164 95 5 74.836 5 50 Z " fill="none" vector-effect="non-scaling-stroke" stroke-width="2" stroke="rgb(0,0,0)" stroke-linejoin="miter" stroke-linecap="square" stroke-miterlimit="3"/><g id="Group"><path d=" M 28 38.406 Q 42.218 40.356 50 40.356 Q 57.782 40.356 72 38.406 L 72 62.894 Q 57.79 65 50 65 Q 42.21 65 28 62.894 L 28 38.406 Z " fill="none" vector-effect="non-scaling-stroke" stroke-width="1.327" stroke="rgb(0,0,0)" stroke-linejoin="miter" stroke-linecap="square" stroke-miterlimit="3"/><path d=" M 30.557 35 Q 42.85 39.576 50 39.576 Q 57.15 39.576 69.443 35 L 69.443 58.513 Q 57.349 64.376 50 64.376 Q 42.651 64.376 30.557 58.513 L 30.557 35 Z " fill="rgb(255,255,255)" vector-effect="non-scaling-stroke" stroke-width="1.327" stroke="rgb(0,0,0)" stroke-linejoin="miter" stroke-linecap="square" stroke-miterlimit="3"/><line x1="50" y1="39.732" x2="50" y2="64.376" vector-effect="non-scaling-stroke" stroke-width="1.327" stroke="rgb(0,0,0)" stroke-linejoin="miter" stroke-linecap="square" stroke-miterlimit="3"/></g></g></svg>