<?xml version="1.0" standalone="no"?><!-- Generator: Gravit.io --><svg xmlns="http://www.w3.org/2000/svg" xmlns:xlink="http://www.w3.org/1999/xlink" style="isolation:isolate" viewBox="0 0 100 100" width="100" height="100"><defs><clipPath id="_clipPath_kyDT1xXs23wQln2YOsAyviKrbbd7viqq"><rect width="100" height="100"/></clipPath></defs><g clip-path="url(#_clipPath_kyDT1xXs23wQln2YOsAyviKrbbd7viqq)"><path d=" M 26.125 34.976 L 73.875 34.976 L 73.875 65.024 L 26.125 65.024 L 26.125 34.976 Z  M 41.676 49.809 L 35.024 49.809 L 28.373 49.809 L 31.699 44.048 L 35.024 38.288 L 38.35 44.048 L 41.676 49.809 Z  M 48.421 49.809 L 43.015 49.809 L 37.608 49.809 L 40.311 45.126 L 43.015 40.444 L 45.718 45.126 L 48.421 49.809 Z  M 58.086 53.636 L 69.186 53.636 M 50.718 57.655 L 69.473 57.655" fill-rule="evenodd" fill="none" vector-effect="non-scaling-stroke" stroke-width="1.531" stroke="rgb(0,0,0)" stroke-linejoin="miter" stroke-linecap="square" stroke-miterlimit="3"/><path d=" M 5 50 C 5 25.164 25.164 5 50 5 C 74.836 5 95 25.164 95 50 C 95 74.836 74.836 95 50 95 C 25.164 95 5 74.836 5 50 Z " fill="none" vector-effect="non-scaling-stroke" stroke-width="2" stroke="rgb(0,0,0)" stroke-linejoin="miter" stroke-linecap="square" stroke-miterlimit="3"/></g></svg>