<?xml version="1.0" standalone="no"?><!-- Generator: Gravit.io --><svg xmlns="http://www.w3.org/2000/svg" xmlns:xlink="http://www.w3.org/1999/xlink" style="isolation:isolate" viewBox="0 0 100 100" width="100" height="100"><defs><clipPath id="_clipPath_fmp4yOAyjn3dqJ2Nr4iA3tYNNnrWKjts"><rect width="100" height="100"/></clipPath></defs><g clip-path="url(#_clipPath_fmp4yOAyjn3dqJ2Nr4iA3tYNNnrWKjts)"><path d=" M 5 50 C 5 25.164 25.164 5 50 5 C 74.836 5 95 25.164 95 50 C 95 74.836 74.836 95 50 95 C 25.164 95 5 74.836 5 50 Z " fill="none" vector-effect="non-scaling-stroke" stroke-width="2" stroke="rgb(0,0,0)" stroke-linejoin="miter" stroke-linecap="square" stroke-miterlimit="3"/><g id="Group"><path d=" M 26.375 35.134 L 73.625 35.134 L 73.625 64.866 L 26.375 64.866 L 26.375 35.134 Z " fill="none" vector-effect="non-scaling-stroke" stroke-width="1.515" stroke="rgb(0,0,0)" stroke-linejoin="miter" stroke-linecap="square" stroke-miterlimit="3"/><line x1="26.375" y1="39.868" x2="73.625" y2="39.868" vector-effect="non-scaling-stroke" stroke-width="1.515" stroke="rgb(0,0,0)" stroke-linejoin="miter" stroke-linecap="square" stroke-miterlimit="3"/><path d=" M 56.013 44.603 L 61.884 49.811 L 56.013 55.397 M 45.408 44.603 L 39.537 49.811 L 45.408 55.397" fill-rule="evenodd" fill="none" vector-effect="non-scaling-stroke" stroke-width="1.515" stroke="rgb(0,0,0)" stroke-linejoin="miter" stroke-linecap="square" stroke-miterlimit="3"/><path d=" M 65.576 37.406 C 65.576 36.936 65.958 36.554 66.429 36.554 C 66.899 36.554 67.281 36.936 67.281 37.406 C 67.281 37.877 66.899 38.259 66.429 38.259 C 65.958 38.259 65.576 37.877 65.576 37.406 Z  M 67.849 37.406 C 67.849 36.936 68.231 36.554 68.701 36.554 C 69.171 36.554 69.553 36.936 69.553 37.406 C 69.553 37.877 69.171 38.259 68.701 38.259 C 68.231 38.259 67.849 37.877 67.849 37.406 Z  M 70.121 37.406 C 70.121 36.936 70.503 36.554 70.974 36.554 C 71.444 36.554 71.826 36.936 71.826 37.406 C 71.826 37.877 71.444 38.259 70.974 38.259 C 70.503 38.259 70.121 37.877 70.121 37.406 Z " fill-rule="evenodd" fill="rgb(0,0,0)"/></g></g></svg>